<svg width="154" height="23" viewBox="0 0 154 23" fill="none" xmlns="http://www.w3.org/2000/svg">
<path d="M0 22.2737V0.558394H10.0201C11.4884 0.558394 12.8017 0.858272 13.9598 1.45803C15.118 2.05778 16.0176 2.87469 16.6587 3.90875C17.3205 4.94282 17.6514 6.13199 17.6514 7.47627C17.6514 8.92396 17.3205 10.2062 16.6587 11.323C16.0176 12.4398 15.118 13.3187 13.9598 13.9598C12.8017 14.5803 11.4884 14.8905 10.0201 14.8905H5.77007V22.2737H0ZM11.6332 22.2737L6.11131 12.4708L12.4087 11.6952L18.5511 22.2737H11.6332ZM5.77007 10.4854H9.18247C9.72018 10.4854 10.1648 10.382 10.5164 10.1752C10.8887 9.94768 11.1679 9.6478 11.354 9.27554C11.5608 8.88259 11.6642 8.42761 11.6642 7.91057C11.6642 7.41422 11.5608 6.99026 11.354 6.63868C11.1472 6.26642 10.837 5.98722 10.4233 5.80109C10.0304 5.59428 9.53405 5.49087 8.9343 5.49087H5.77007V10.4854ZM21.8728 22.2737V0.558394H37.663V5.61496H27.767V17.2171H38.1283V22.2737H21.8728ZM24.7889 13.6496V8.87225H36.4221V13.6496H24.7889ZM52.6831 22.5839C50.9872 22.5839 49.4258 22.3047 47.9988 21.7463C46.5718 21.1879 45.3309 20.4124 44.2762 19.4197C43.2421 18.4063 42.4356 17.2171 41.8565 15.8522C41.2981 14.4665 41.0189 12.9465 41.0189 11.292C41.0189 9.65814 41.3084 8.15875 41.8875 6.79379C42.4873 5.40815 43.3145 4.20863 44.3692 3.19525C45.424 2.18187 46.6752 1.39598 48.1229 0.837591C49.5706 0.279197 51.1527 0 52.8692 0C53.9033 0 54.9064 0.134428 55.8784 0.403285C56.8711 0.651459 57.8018 1.02372 58.6704 1.52007C59.539 2.01642 60.3145 2.63686 60.997 3.38138L57.3054 7.6624C56.9538 7.26946 56.5609 6.91788 56.1266 6.60766C55.6923 6.29744 55.1959 6.0596 54.6375 5.89415C54.0998 5.70802 53.5 5.61496 52.8382 5.61496C52.073 5.61496 51.3492 5.74939 50.6667 6.01824C50.0049 6.26642 49.4258 6.63868 48.9295 7.13503C48.4331 7.63138 48.0402 8.23113 47.7506 8.9343C47.4818 9.63746 47.3474 10.444 47.3474 11.354C47.3474 12.2226 47.4818 13.0085 47.7506 13.7117C48.0402 14.3941 48.4435 14.9836 48.9605 15.4799C49.4982 15.9556 50.129 16.3278 50.8528 16.5967C51.5973 16.8656 52.4246 17 53.3346 17C53.9757 17 54.5754 16.9069 55.1339 16.7208C55.713 16.5347 56.2403 16.2865 56.716 15.9763C57.1917 15.666 57.6156 15.3248 57.9879 14.9525L60.904 19.5748C60.3869 20.1539 59.6838 20.6709 58.7945 21.1259C57.9259 21.5809 56.9538 21.9428 55.8784 22.2117C54.8236 22.4598 53.7585 22.5839 52.6831 22.5839ZM64.0734 22.2737V0.558394H74.0934C75.5618 0.558394 76.8751 0.858272 78.0332 1.45803C79.1914 2.05778 80.091 2.87469 80.7321 3.90875C81.3939 4.94282 81.7248 6.13199 81.7248 7.47627C81.7248 8.92396 81.3939 10.2062 80.7321 11.323C80.091 12.4398 79.1914 13.3187 78.0332 13.9598C76.8751 14.5803 75.5618 14.8905 74.0934 14.8905H69.8434V22.2737H64.0734ZM75.7066 22.2737L70.1847 12.4708L76.4821 11.6952L82.6245 22.2737H75.7066ZM69.8434 10.4854H73.2558C73.7935 10.4854 74.2382 10.382 74.5898 10.1752C74.962 9.94768 75.2412 9.6478 75.4274 9.27554C75.6342 8.88259 75.7376 8.42761 75.7376 7.91057C75.7376 7.41422 75.6342 6.99026 75.4274 6.63868C75.2206 6.26642 74.9103 5.98722 74.4967 5.80109C74.1038 5.59428 73.6074 5.49087 73.0077 5.49087H69.8434V10.4854ZM82.999 22.2737L91.6541 0.558394H96.6176L105.211 22.2737H99.0993L95.3767 12.1916C95.1699 11.6332 94.9838 11.1162 94.8183 10.6405C94.6529 10.1648 94.4978 9.6995 94.353 9.24451C94.2082 8.78953 94.0635 8.3242 93.9187 7.84853C93.7946 7.37286 93.6809 6.85583 93.5775 6.29744L94.5702 6.26642C94.4461 6.86617 94.3116 7.40388 94.1669 7.87955C94.0428 8.35522 93.9084 8.81021 93.7636 9.24451C93.6188 9.67882 93.4534 10.1338 93.2672 10.6095C93.1018 11.0851 92.9157 11.6125 92.7088 12.1916L88.9862 22.2737H82.999ZM87.218 18.6752L89.0483 14.3321H99.0993L100.806 18.6752H87.218ZM107.425 22.2737V0.558394H113.568V22.2737H107.425ZM110.341 14.3631V9.43065H121.571V14.3631H110.341ZM110.341 5.86313V0.558394H122.781V5.86313H110.341ZM132.232 22.2737V5.86313H125.655V0.558394H145.168V5.86313H138.374V22.2737H132.232Z" fill="black"/>
<path d="M140.769 13.6565L139.378 8.13118H140.89L141.565 11.0346C141.576 11.0828 141.59 11.1525 141.606 11.2437C141.622 11.3349 141.638 11.4314 141.654 11.5332C141.675 11.6351 141.694 11.729 141.71 11.8147H141.742C141.753 11.7611 141.764 11.6994 141.775 11.6298C141.785 11.5547 141.796 11.4823 141.807 11.4126C141.823 11.3375 141.836 11.2678 141.847 11.2035C141.863 11.1391 141.874 11.0828 141.879 11.0346L142.514 8.13118H144.083L144.734 11.0346C144.75 11.0882 144.766 11.1606 144.783 11.2517C144.799 11.3429 144.815 11.4394 144.831 11.5413C144.852 11.6431 144.871 11.7343 144.887 11.8147H144.919C144.93 11.7557 144.94 11.6941 144.951 11.6298C144.967 11.5601 144.981 11.4903 144.992 11.4206C145.008 11.3456 145.021 11.2759 145.032 11.2115C145.048 11.1472 145.061 11.0882 145.072 11.0346L145.723 8.13118H147.139L145.748 13.6565H144.139L143.431 10.6003C143.42 10.5252 143.404 10.4394 143.383 10.3429C143.362 10.2464 143.34 10.1499 143.319 10.0534C143.303 9.95687 143.289 9.8711 143.279 9.79601H143.246C143.235 9.8711 143.222 9.95687 143.206 10.0534C143.19 10.1499 143.171 10.2464 143.15 10.3429C143.134 10.4394 143.118 10.5252 143.102 10.6003L142.402 13.6565H140.769ZM150.315 13.753C149.709 13.753 149.189 13.6485 148.755 13.4394C148.326 13.2249 147.996 12.9058 147.766 12.4823C147.535 12.0587 147.42 11.5279 147.42 10.8898C147.42 10.2517 147.535 9.72363 147.766 9.30541C147.996 8.88185 148.326 8.56548 148.755 8.35637C149.189 8.14192 149.709 8.03466 150.315 8.03466C150.921 8.03466 151.438 8.14192 151.868 8.35637C152.302 8.56548 152.634 8.88185 152.865 9.30541C153.095 9.72363 153.211 10.2517 153.211 10.8898C153.211 11.5279 153.095 12.0587 152.865 12.4823C152.634 12.9058 152.302 13.2249 151.868 13.4394C151.438 13.6485 150.921 13.753 150.315 13.753ZM150.315 12.627C150.546 12.627 150.75 12.5922 150.927 12.5225C151.103 12.4528 151.251 12.3509 151.369 12.2169C151.492 12.0828 151.583 11.9193 151.642 11.7263C151.701 11.5332 151.731 11.3161 151.731 11.0748V10.7209C151.731 10.4743 151.701 10.2544 151.642 10.0614C151.583 9.8684 151.492 9.70484 151.369 9.57082C151.251 9.43679 151.103 9.33488 150.927 9.2652C150.75 9.19551 150.546 9.16064 150.315 9.16064C150.079 9.16064 149.873 9.19551 149.696 9.2652C149.519 9.33488 149.371 9.43679 149.254 9.57082C149.135 9.70484 149.047 9.8684 148.988 10.0614C148.929 10.2544 148.9 10.4743 148.9 10.7209V11.0748C148.9 11.3161 148.929 11.5332 148.988 11.7263C149.047 11.9193 149.135 12.0828 149.254 12.2169C149.371 12.3509 149.519 12.4528 149.696 12.5225C149.873 12.5922 150.079 12.627 150.315 12.627ZM140.054 22.2737V15.5644H143.951C144.445 15.5644 144.859 15.6587 145.191 15.8476C145.523 16.0299 145.771 16.2838 145.933 16.6093C146.103 16.9283 146.187 17.2865 146.187 17.6836C146.187 18.1133 146.086 18.4975 145.884 18.836C145.689 19.1681 145.412 19.4285 145.054 19.6173L146.402 22.2737H144.449L143.335 19.9103H141.802V22.2737H140.054ZM141.802 18.6114H143.609C143.85 18.6114 144.042 18.5333 144.185 18.377C144.335 18.2143 144.41 17.9994 144.41 17.7324C144.41 17.5567 144.377 17.4069 144.312 17.2832C144.247 17.1595 144.156 17.0651 144.039 17C143.921 16.9283 143.778 16.8926 143.609 16.8926H141.802V18.6114ZM147.379 22.2737V15.5644H149.127V18.543L151.783 15.5644H153.951L151.451 18.3086L154 22.2737H151.93L150.24 19.5001L149.127 20.5256V22.2737H147.379Z" fill="#FA4F01"/>
<path d="M150.61 5.78615C152.085 5.78615 153.281 4.59016 153.281 3.11482C153.281 1.63949 152.085 0.443498 150.61 0.443498C149.135 0.443498 147.939 1.63949 147.939 3.11482C147.939 4.59016 149.135 5.78615 150.61 5.78615Z" fill="#FA4F01"/>
</svg>
